<?xml version="1.0" standalone="no"?>
<!DOCTYPE svg PUBLIC "-//W3C//DTD SVG 20010904//EN"
 "http://www.w3.org/TR/2001/REC-SVG-20010904/DTD/svg10.dtd">
<svg version="1.0" xmlns="http://www.w3.org/2000/svg"
 width="500.000000pt" height="500.000000pt" viewBox="0 0 500.000000 500.000000"
 preserveAspectRatio="xMidYMid meet">
<metadata>
Created by potrace 1.14, written by Peter Selinger 2001-2017
</metadata>
<g transform="translate(0.000000,500.000000) scale(0.100000,-0.100000)"
fill="#000000" stroke="none">
<path d="M0 2500 l0 -2500 2500 0 2500 0 0 2500 0 2500 -2500 0 -2500 0 0
-2500z m1089 976 c57 -30 109 -121 114 -201 2 -34 -1 -40 -18 -40 -15 0 -23
11 -33 45 -31 104 -59 148 -115 176 -63 33 -178 -8 -274 -99 -128 -121 -214
-305 -260 -557 -23 -131 -23 -398 1 -495 58 -238 163 -305 286 -185 61 59 119
149 158 243 35 83 99 289 108 347 l7 40 -141 0 c-130 0 -168 7 -148 27 3 4 83
10 177 15 155 8 173 7 190 -8 17 -15 19 -33 19 -183 0 -91 5 -221 12 -289 6
-67 8 -125 4 -129 -15 -15 -41 16 -53 63 -7 27 -18 107 -23 178 -5 71 -11 130
-13 132 -2 2 -16 -29 -32 -68 -15 -40 -52 -121 -83 -180 -233 -454 -505 -380
-554 150 -31 339 67 706 239 891 126 137 308 190 432 127z m566 -361 c150 -32
283 -124 332 -232 48 -104 39 -212 -28 -331 -26 -47 -28 -53 -11 -48 191 61
421 47 858 -53 459 -105 558 -121 729 -121 190 0 343 48 448 140 45 40 67 45
67 15 0 -23 -80 -84 -165 -126 -119 -59 -197 -72 -395 -66 -169 5 -300 25
-540 82 -418 100 -532 119 -725 119 -222 0 -293 -20 -430 -124 -80 -61 -216
-128 -345 -171 -52 -17 -97 -33 -99 -35 -3 -2 -10 -110 -16 -240 -10 -187 -15
-239 -28 -251 -36 -36 -40 -10 -32 238 l7 238 -33 3 -34 4 38 17 c31 15 37 22
37 49 0 120 34 645 42 656 12 14 18 15 36 4 10 -7 10 -67 -3 -318 -19 -398
-21 -358 14 -351 49 10 207 82 285 131 140 88 226 185 267 303 65 190 -41 358
-271 428 -87 26 -268 31 -391 10 -244 -40 -472 -145 -585 -267 -52 -56 -66
-82 -73 -133 -5 -31 -10 -40 -25 -40 -28 0 -40 26 -32 69 10 52 118 164 220
227 129 79 298 140 481 173 106 19 311 20 400 1z m-130 -986 c11 -16 1 -19
-13 -3 -7 8 -8 14 -3 14 5 0 13 -5 16 -11z m155 -37 c0 -26 5 -53 12 -60 8 -8
8 -12 1 -12 -19 0 -31 24 -34 73 -3 33 0 47 8 47 9 0 13 -16 13 -48z m80 44
c0 -3 -4 -8 -10 -11 -5 -3 -10 -1 -10 4 0 6 5 11 10 11 6 0 10 -2 10 -4z m135
-56 c0 -41 -4 -60 -12 -60 -9 0 -13 19 -13 60 0 41 4 60 13 60 8 0 12 -19 12
-60z m145 0 c0 -41 -4 -60 -12 -60 -9 0 -13 19 -13 60 0 41 4 60 13 60 8 0 12
-19 12 -60z m190 0 c0 -41 -4 -60 -12 -60 -9 0 -13 19 -13 60 0 41 4 60 13 60
8 0 12 -19 12 -60z m219 38 c5 -13 16 -40 25 -60 12 -29 13 -38 4 -38 -14 0
-59 106 -50 115 9 9 12 6 21 -17z m171 -26 c0 -26 5 -53 12 -60 7 -7 8 -12 2
-12 -22 0 -34 26 -34 72 0 26 5 48 10 48 6 0 10 -22 10 -48z m233 10 c28 -47
15 -62 -13 -16 -33 52 -35 57 -19 52 8 -3 22 -19 32 -36z m77 -22 c0 -41 -4
-60 -12 -60 -9 0 -13 16 -11 53 2 68 1 67 13 67 6 0 10 -27 10 -60z m145 0 c0
-41 -4 -60 -12 -60 -9 0 -13 19 -13 60 0 41 4 60 13 60 8 0 12 -19 12 -60z
m55 50 c0 -5 -2 -10 -4 -10 -3 0 -8 5 -11 10 -3 6 -1 10 4 10 6 0 11 -4 11
-10z m275 -50 c0 -41 -4 -60 -12 -60 -9 0 -13 19 -13 60 0 41 4 60 13 60 8 0
12 -19 12 -60z m49 37 c8 -13 7 -21 -6 -33 -16 -16 -17 -16 -11 4 3 12 -1 30
-8 39 -12 14 -12 16 0 12 8 -3 19 -13 25 -22z m189 -37 c20 -46 22 -60 11 -60
-8 0 -14 5 -14 10 0 6 -9 30 -20 52 -22 46 -24 58 -12 58 5 0 20 -27 35 -60z
m157 12 c0 -26 5 -53 12 -60 7 -7 8 -12 2 -12 -22 0 -34 26 -34 72 0 26 5 48
10 48 6 0 10 -22 10 -48z m210 44 c0 -2 -7 -6 -15 -10 -8 -3 -15 -1 -15 4 0 6
7 10 15 10 8 0 15 -2 15 -4z m30 -56 c0 -41 -4 -60 -12 -60 -9 0 -12 17 -10
60 5 78 22 78 22 0z m170 0 c0 -41 -4 -60 -12 -60 -9 0 -13 19 -13 60 0 41 4
60 13 60 8 0 12 -19 12 -60z m50 50 c0 -5 -2 -10 -4 -10 -3 0 -8 5 -11 10 -3
6 -1 10 4 10 6 0 11 -4 11 -10z m140 6 c0 -2 -7 -6 -15 -10 -8 -3 -15 -1 -15
4 0 6 7 10 15 10 8 0 15 -2 15 -4z m30 -56 c0 -41 -4 -60 -12 -60 -9 0 -12 17
-10 60 5 78 22 78 22 0z m-2978 16 c-3 -25 2 -40 17 -55 25 -25 6 -29 -21 -4
-20 18 -24 63 -6 81 7 7 12 12 13 12 1 0 -1 -15 -3 -34z m1668 -16 c0 -5 -2
-10 -4 -10 -3 0 -8 5 -11 10 -3 6 -1 10 4 10 6 0 11 -4 11 -10z m-1580 -24 c0
-8 -4 -18 -10 -21 -5 -3 -10 3 -10 14 0 12 5 21 10 21 6 0 10 -6 10 -14z
m1595 -26 c-3 -5 -12 -10 -18 -10 -7 0 -6 4 3 10 19 12 23 12 15 0z m1135 0
c0 -5 -8 -10 -17 -10 -15 0 -16 2 -3 10 19 12 20 12 20 0z m-2158 -135 c-3
-27 -1 -35 12 -35 23 0 31 27 15 47 -12 14 -12 16 1 11 35 -11 17 -68 -21 -68
-15 0 -19 7 -19 33 0 27 6 47 15 47 0 0 -1 -16 -3 -35z m158 9 c0 -8 6 -14 13
-15 10 0 10 -2 0 -6 -18 -7 -16 -21 5 -26 10 -3 6 -5 -10 -6 -26 -1 -28 2 -28
40 0 24 4 38 10 34 6 -3 10 -13 10 -21z m155 -53 c-7 -7 -34 63 -28 73 3 5 12
-9 19 -30 7 -21 11 -40 9 -43z m135 53 c0 -8 6 -14 13 -15 10 0 10 -2 0 -6
-18 -7 -16 -21 5 -26 10 -3 6 -5 -10 -6 -26 -1 -28 2 -28 40 0 24 4 38 10 34
6 -3 10 -13 10 -21z m306 18 c18 -12 23 -39 11 -56 -10 -14 -12 -12 -12 16 0
23 -5 33 -15 33 -10 0 -15 -10 -15 -33 0 -28 -2 -30 -12 -16 -16 22 2 64 27
64 3 0 10 -4 16 -8z m127 -12 c-3 -11 0 -20 6 -20 6 0 11 7 11 16 0 8 4 13 10
9 13 -8 1 -35 -16 -35 -8 0 -14 -7 -14 -15 0 -8 -3 -15 -8 -15 -4 0 -6 18 -4
40 2 22 8 40 12 40 5 0 6 -9 3 -20z m140 0 c-3 -11 0 -20 6 -20 6 0 11 7 11
16 0 8 4 13 10 9 13 -8 1 -35 -16 -35 -8 0 -14 -7 -14 -15 0 -8 -3 -15 -8 -15
-4 0 -6 18 -4 40 2 22 8 40 12 40 5 0 6 -9 3 -20z m440 0 c-6 -21 13 -28 20
-7 2 6 3 3 1 -7 -2 -11 2 -26 8 -33 6 -7 7 -13 3 -13 -4 0 -14 8 -21 18 -13
16 -13 16 -14 0 0 -10 -4 -18 -10 -18 -11 0 -14 63 -3 73 13 13 21 7 16 -13z
m243 -16 c8 -20 13 -39 10 -42 -3 -2 -8 1 -10 9 -3 8 -10 26 -15 42 -15 40 -2
33 15 -9z m40 0 c8 -20 12 -39 9 -42 -3 -3 -8 4 -12 16 -3 12 -9 20 -13 17 -4
-3 -7 6 -6 20 1 33 4 32 22 -11z m284 -5 c0 -16 4 -29 10 -29 5 0 7 14 5 30
-4 35 11 41 17 7 7 -34 -1 -47 -28 -47 -21 0 -24 4 -24 41 0 24 4 38 10 34 6
-3 10 -19 10 -36z m-1422 -32 c11 -3 7 -5 -8 -6 -24 -1 -26 1 -21 37 l6 37 3
-32 c2 -19 10 -33 20 -36z m566 31 c8 -5 7 -8 -1 -8 -7 0 -13 -5 -13 -11 0 -6
9 -9 20 -6 11 3 20 1 20 -4 0 -5 -13 -9 -28 -9 -26 0 -28 2 -23 38 2 20 6 30
9 22 3 -8 10 -18 16 -22z m128 -2 c2 -19 0 -32 -4 -30 -8 5 -12 64 -4 64 2 0
6 -15 8 -34z m45 -3 c-3 -10 -5 -4 -5 12 0 17 2 24 5 18 2 -7 2 -21 0 -30z
m549 11 c8 3 14 1 14 -4 0 -6 -7 -10 -15 -10 -23 0 -18 -18 8 -23 19 -4 18 -4
-5 -6 -26 -1 -28 2 -27 37 1 20 3 29 6 19 3 -11 11 -16 19 -13z"/>
</g>
</svg>
