<svg enable-background="new 0 0 512 512" height="512" viewBox="0 0 512 512" width="512" xmlns="http://www.w3.org/2000/svg"><path d="m108.382 0h23.077v22.8h21.11v-22.8h23.078v69.044h-23.077v-23.12h-21.11v23.12h-23.077z"/><path d="m205.994 22.896h-20.316v-22.896h63.72v22.896h-20.325v46.148h-23.078z"/><path d="m259.511 0h24.063l14.802 24.26 14.787-24.26h24.072v69.044h-22.982v-34.222l-15.877 24.549h-.397l-15.888-24.549v34.222h-22.58z"/><path d="m348.72 0h23.084v46.222h32.453v22.822h-55.537z"/><path d="m107.125 470.727-33.113-371.43h363.691l-33.154 371.458-148.78 41.245z" fill="#e34e26"/><path d="m255.857 129.657v350.792l120.307-33.348 28.346-317.444z" fill="#ef662a"/><path d="m141.761 175.217 12.28 137.761h157.895l-5.299 59.088-50.838 13.745-50.742-13.726-3.393-37.939h-45.727l6.539 73.136 93.311 25.917 93.432-25.917 12.525-139.853h-166.038l-4.168-46.652h174.194.141l4.08-45.56z" fill="#fff"/><g fill="#ebebeb"><path d="m255.857 175.217h-114.096l12.28 137.761h101.816v-45.549h-60.151l-4.168-46.652h64.319z"/><path d="m255.857 385.791-.058.02-50.742-13.726-3.393-37.939h-45.727l6.539 73.136 93.311 25.917.07-.02z"/></g></svg>